<svg width="769" height="308" viewBox="0 0 769 308" fill="none" xmlns="http://www.w3.org/2000/svg">
<path d="M430.036 1.13038C493.996 7.6194 500.491 45.0451 554.453 60.0136C601.928 73.1829 689.417 60.8439 717.423 80.8493C745.53 100.927 667.812 123.643 675.337 146.365C684.846 175.08 790.966 197.088 764.888 224.172C740.865 249.121 633.542 235.948 575.655 249.892C514.357 264.658 491.564 301.143 421.201 306.961C351.677 312.709 284.987 293.395 224.197 278.949C163.807 264.598 108.759 247.064 70.7963 223.689C31.5658 199.534 -13.8648 171.152 4.00661 143.372C22.1715 115.137 111.535 105.295 160.934 83.5784C199.07 66.8136 216.154 44.0974 261.284 30.2704C310.575 15.1684 369.511 -5.01007 430.036 1.13038Z" fill="#FF6000" fill-opacity="0.1"/>
</svg>
